name C:\Users\u0101727\Documents\MyRepositories\upper-imu-dc\Results\main_tracking\Case_42\FLX01_linearAccelerations_groundFrame.mot
datacolumns 4
datarows 70
range 0.51000000 1.20000000
endheader 
time	radius_imu_x	radius_imu_y	radius_imu_z	
          0.51000000	         -3.11355128	         10.40204655	          0.69013046	
          0.52000000	         -2.21019315	         10.27631151	         -0.22029103	
          0.53000000	         -1.67919637	         10.21500933	         -0.80489116	
          0.54000000	         -1.32568948	         10.16385512	         -1.24064350	
          0.55000000	         -1.11142493	         10.12257929	         -1.54612760	
          0.56000000	         -0.99406172	         10.09171754	         -1.75228698	
          0.57000000	         -0.94684577	         10.07111223	         -1.87962534	
          0.58000000	         -0.95051539	         10.06042392	         -1.94486973	
          0.59000000	         -0.99186688	         10.05926679	         -1.96105962	
          0.60000000	         -1.06143446	         10.06695718	         -1.93926909	
          0.61000000	         -1.15246684	         10.08290367	         -1.88836401	
          0.62000000	         -1.25962876	         10.10627933	         -1.81682016	
          0.63000000	         -1.37927201	         10.13649661	         -1.73109611	
          0.64000000	         -1.50813041	         10.17267072	         -1.63759199	
          0.65000000	         -1.64395372	         10.21386090	         -1.54139413	
          0.66000000	         -1.78506825	         10.25894574	         -1.44685131	
          0.67000000	         -1.93040152	         10.30671874	         -1.35735105	
          0.68000000	         -2.07921216	         10.35593510	         -1.27551108	
          0.69000000	         -2.23090248	         10.40539227	         -1.20326041	
          0.70000000	         -2.38488681	         10.45400866	         -1.14190521	
          0.71000000	         -2.54056858	         10.50089444	         -1.09212657	
          0.72000000	         -2.69739834	         10.54539950	         -1.05394336	
          0.73000000	         -2.85495193	         10.58713192	         -1.02669748	
          0.74000000	         -3.01297914	         10.62593837	         -1.00910826	
          0.75000000	         -3.17140914	         10.66184951	         -0.99939658	
          0.76000000	         -3.33031925	         10.69501775	         -0.99545279	
          0.77000000	         -3.48987854	         10.72567680	         -0.99502857	
          0.78000000	         -3.65027489	         10.75412801	         -0.99594538	
          0.79000000	         -3.81163954	         10.78073955	         -0.99630193	
          0.80000000	         -3.97399112	         10.80594755	         -0.99464752	
          0.81000000	         -4.13720971	         10.83025733	         -0.99009583	
          0.82000000	         -4.30103451	         10.85424336	         -0.98237237	
          0.83000000	         -4.46507165	         10.87853751	         -0.97180169	
          0.84000000	         -4.62880355	         10.90379395	         -0.95924352	
          0.85000000	         -4.79160237	         10.93063108	         -0.94598749	
          0.86000000	         -4.95275524	         10.95955649	         -0.93362077	
          0.87000000	         -5.11150738	         10.99087870	         -0.92388196	
          0.88000000	         -5.26712487	         11.02464207	         -0.91850700	
          0.89000000	         -5.41898661	         11.06052572	         -0.91908628	
          0.90000000	         -5.56663493	         11.09806692	         -0.92692760	
          0.91000000	         -5.71006467	         11.13595088	         -0.94325947	
          0.92000000	         -5.84941559	         11.17284885	         -0.96513395	
          0.93000000	         -5.98335681	         11.21135194	         -0.98821546	
          0.94000000	         -6.10816156	         11.24872008	         -1.02170998	
          0.95000000	         -6.21776438	         11.28618631	         -1.07373175	
          0.96000000	         -6.30778971	         11.31943885	         -1.15150392	
          0.97000000	         -6.37629593	         11.35036617	         -1.24855185	
          0.98000000	         -6.42329928	         11.37797023	         -1.36287228	
          0.99000000	         -6.44898899	         11.40190331	         -1.49385125	
          1.00000000	         -6.45362499	         11.42243349	         -1.64018691	
          1.01000000	         -6.43778772	         11.43997150	         -1.79994611	
          1.02000000	         -6.40241172	         11.45492003	         -1.97066724	
          1.03000000	         -6.34873391	         11.46744680	         -2.14959328	
          1.04000000	         -6.27821282	         11.47739697	         -2.33395561	
          1.05000000	         -6.19247609	         11.48428895	         -2.52118492	
          1.06000000	         -6.09328442	         11.48735763	         -2.70902757	
          1.07000000	         -5.98245898	         11.48561947	         -2.89561421	
          1.08000000	         -5.86175609	         11.47795828	         -3.07950545	
          1.09000000	         -5.73272509	         11.46322072	         -3.25968377	
          1.10000000	         -5.59659631	         11.44029815	         -3.43545867	
          1.11000000	         -5.45422349	         11.40818534	         -3.60630669	
          1.12000000	         -5.30608484	         11.36602732	         -3.77170946	
          1.13000000	         -5.15233665	         11.31316798	         -3.93104352	
          1.14000000	         -4.99290522	         11.24920037	         -4.08354141	
          1.15000000	         -4.82759663	         11.17400711	         -4.22831594	
          1.16000000	         -4.65619768	         11.08778395	         -4.36443459	
          1.17000000	         -4.47854926	         10.99104870	         -4.49102802	
          1.18000000	         -4.29459530	         10.88463429	         -4.60740160	
          1.19000000	         -4.10441829	         10.76966050	         -4.71311718	
          1.20000000	         -3.90826158	         10.64748160	         -4.80802776	
